<svg width="59" height="47" viewBox="0 0 59 47" fill="none" xmlns="http://www.w3.org/2000/svg">
<path d="M56.8017 0.829712H2.32619C1.16728 0.829712 0.23098 1.76601 0.23098 2.92492V44.8291C0.23098 45.988 1.16728 46.9243 2.32619 46.9243H56.8017C57.9606 46.9243 58.8969 45.988 58.8969 44.8291V2.92492C58.8969 1.76601 57.9606 0.829712 56.8017 0.829712ZM18.1712 10.2582C20.4825 10.2582 22.3616 12.1373 22.3616 14.4486C22.3616 16.7599 20.4825 18.639 18.1712 18.639C15.8599 18.639 13.9808 16.7599 13.9808 14.4486C13.9808 12.1373 15.8599 10.2582 18.1712 10.2582ZM51.819 38.8774C51.7236 38.9575 51.6031 39.0016 51.4785 39.0018H7.64279C7.35469 39.0018 7.11898 38.7661 7.11898 38.478C7.11898 38.3536 7.16482 38.2358 7.24339 38.1376L18.3938 24.9115C18.5772 24.6889 18.9111 24.6627 19.1337 24.8461C19.1533 24.8657 19.1795 24.8853 19.1992 24.9115L25.7074 32.6376L36.0591 20.361C36.2424 20.1384 36.5763 20.1122 36.7989 20.2955C36.8186 20.3152 36.8448 20.3348 36.8644 20.361L51.8976 38.1441C52.0678 38.3602 52.0416 38.6941 51.819 38.8774Z" fill="white"/>
</svg>
